<?xml version="1.0" encoding="UTF-8"?>
<svg id="Capa_1" data-name="Capa 1" xmlns="http://www.w3.org/2000/svg" viewBox="0 0 1496.21 1586.86">
  <ellipse cx="748.11" cy="1529.52" rx="55.68" ry="53.84" fill="none" stroke="#c9a24d" stroke-miterlimit="10" stroke-width="7"/>
  <path d="M1318.71,788.59L761.93,174.47c-7.48-8.26-19.64-8.24-27.14.03-131.59,146.33-263.65,292.28-396.19,437.84-53.94,59.24-107.97,118.42-162.07,177.54-1.23,1.42-5.63,6.84-5.64,14.97,0,5.42,1.86,10.83,5.6,14.96l556.78,614.12c7.48,8.26,19.64,8.24,27.14-.03l558.26-615.38c7.5-8.27,7.52-21.67.04-29.93Z" fill="none" stroke="#c9a24d" stroke-miterlimit="10" stroke-width="7"/>
  <path d="M755.66,589.37c-142.64-4.65-537.85,134.9-575.61,215.95,37.47,51.62,428.14,209.61,577.62,201.82,155.48-8.11,523.49-135.85,556.1-202.92-32.35-71.35-392.74-209.46-558.11-214.85Z" fill="none" stroke="#c9a24d" stroke-miterlimit="10" stroke-width="7"/>
  <ellipse cx="748.11" cy="793.43" rx="161.44" ry="164.4" fill="#c9a24d" stroke="#c9a24d" stroke-miterlimit="10" stroke-width="3"/>
  <line x1="746.59" y1="171.86" x2="748.61" y2="578.13" fill="none" stroke="#c9a24d" stroke-miterlimit="10" stroke-width="5.5"/>
  <path d="M354.8,592.35c-1.87,5.05-7.28,22.39,6.07,41.45,12.95,18.48,35.4,26.97,42.52,29.42" fill="none" stroke="#c9a24d" stroke-miterlimit="10" stroke-width="5.5"/>
  <path d="M447.71,494.88c-4.03,12.4-8.95,35.22,0,62.39,12.39,37.59,43.85,60.77,57.17,69.57" fill="none" stroke="#c9a24d" stroke-miterlimit="10" stroke-width="5.5"/>
  <path d="M956.15,390.58c3.8,24.1,5.6,56.66-2.02,94.33-10.48,51.77-34.34,91.43-52.64,116.34" fill="none" stroke="#c9a24d" stroke-miterlimit="10" stroke-width="5.5"/>
  <path d="M537.23,397c-3.82,23.37-5.63,54.93,2.03,91.45,10.53,50.19,34.51,88.64,52.9,112.79" fill="none" stroke="#c9a24d" stroke-miterlimit="10" stroke-width="5.5"/>
  <path d="M1048.77,487.3c4.27,15.89,6.29,37.36-2.27,62.2-11.76,34.14-38.56,60.29-59.11,76.72" fill="none" stroke="#c9a24d" stroke-miterlimit="10" stroke-width="5.5"/>
  <path d="M1125.81,578.13c2.42,9.73,3.56,22.88-1.29,38.1-6.67,20.91-21.87,36.93-33.52,46.99" fill="none" stroke="#c9a24d" stroke-miterlimit="10" stroke-width="5.5"/>
  <path d="M643.33,272.49c-5.61,46.63-9.18,98.06-9.11,153.62.08,60.52,4.48,116.22,11.14,166.24" fill="none" stroke="#c9a24d" stroke-miterlimit="10" stroke-width="5.5"/>
  <path d="M848.43,269.75c6.32,46.06,10.48,97.28,10.53,152.9.06,62.3-5.04,119.21-12.64,169.7" fill="none" stroke="#c9a24d" stroke-miterlimit="10" stroke-width="5.5"/>
  <line x1="749.36" y1="1437.84" x2="751.39" y2="1028.91" fill="none" stroke="#c9a24d" stroke-miterlimit="10" stroke-width="5.5"/>
  <path d="M358.5,1019.29c-1.87-5.66-7.28-25.09,6.07-46.46,12.95-20.72,35.4-30.22,42.52-32.97" fill="none" stroke="#c9a24d" stroke-miterlimit="10" stroke-width="5.5"/>
  <path d="M451.42,1124.44c-4.03-13.93-8.95-39.56,0-70.07,12.39-42.21,43.85-68.24,57.17-78.13" fill="none" stroke="#c9a24d" stroke-miterlimit="10" stroke-width="5.5"/>
  <path d="M959.86,1212.51c3.8-24.1,5.6-56.66-2.02-94.33-10.48-51.77-34.34-91.43-52.64-116.34" fill="none" stroke="#c9a24d" stroke-miterlimit="10" stroke-width="5.5"/>
  <path d="M540.93,1221.1c-3.82-24.86-5.63-58.44,2.03-97.29,10.53-53.4,34.51-94.3,52.9-120" fill="none" stroke="#c9a24d" stroke-miterlimit="10" stroke-width="5.5"/>
  <path d="M1052.47,1112.46c4.27-15.51,6.29-36.47-2.27-60.71-11.76-33.32-38.56-58.85-59.11-74.88" fill="none" stroke="#c9a24d" stroke-miterlimit="10" stroke-width="5.5"/>
  <path d="M1138.76,1019.29c3.06-9.09,4.51-21.36-1.63-35.56-8.44-19.52-27.67-34.47-42.42-43.86" fill="none" stroke="#c9a24d" stroke-miterlimit="10" stroke-width="5.5"/>
  <path d="M647.03,1340.79c-5.61-48.11-9.18-101.18-9.11-158.51.08-62.45,4.48-119.92,11.14-171.54" fill="none" stroke="#c9a24d" stroke-miterlimit="10" stroke-width="5.5"/>
  <path d="M852.14,1333.34c6.32-46.06,10.48-97.28,10.53-152.9.06-62.3-5.04-119.21-12.64-169.7" fill="none" stroke="#c9a24d" stroke-miterlimit="10" stroke-width="5.5"/>
  <ellipse cx="59.18" cy="804.2" rx="55.68" ry="53.84" fill="none" stroke="#c9a24d" stroke-miterlimit="10" stroke-width="7"/>
  <ellipse cx="1437.03" cy="804.2" rx="55.68" ry="53.84" fill="none" stroke="#c9a24d" stroke-miterlimit="10" stroke-width="7"/>
  <ellipse cx="747.6" cy="57.34" rx="55.68" ry="53.84" fill="none" stroke="#c9a24d" stroke-miterlimit="10" stroke-width="7"/>
</svg>

